<svg id="Lag_1" data-name="Lag 1" xmlns="http://www.w3.org/2000/svg" width="170.07" height="23.96" viewBox="0 0 170.07 23.96"><defs><style>.cls-1{fill:#565862;}.cls-2{fill:#67b35c;}</style></defs><title>onlineplus_logo_optimized</title><path d="M355.05,298.17q0,5.52-2.74,8.49c-1.82,2-4.44,3-7.84,3s-6-1-7.85-3-2.74-4.82-2.74-8.52.92-6.52,2.75-8.47,4.45-2.93,7.87-2.93,6,1,7.83,2.95S355.05,294.48,355.05,298.17Zm-16.23,0a9.27,9.27,0,0,0,1.42,5.61,4.94,4.94,0,0,0,4.23,1.89q5.64,0,5.64-7.5t-5.61-7.51a5,5,0,0,0-4.25,1.9A9.24,9.24,0,0,0,338.82,298.17Z" transform="translate(-333.88 -285.66)"/><path d="M374.58,309.32h-4.64v-9.61a4.73,4.73,0,0,0-.65-2.76,2.35,2.35,0,0,0-2.08-.92,3.11,3.11,0,0,0-2.81,1.3,8,8,0,0,0-.87,4.31v7.68h-4.64V292.64h3.55l.62,2.17h.26a4.82,4.82,0,0,1,2.13-1.83,7.31,7.31,0,0,1,3.1-.63,6,6,0,0,1,4.5,1.6,6.37,6.37,0,0,1,1.53,4.6v10.77Z" transform="translate(-333.88 -285.66)"/><path d="M383.6,309.32H379V285.66h4.64v23.66Z" transform="translate(-333.88 -285.66)"/><path d="M387.87,287.92c0-1.51.84-2.26,2.52-2.26s2.53.75,2.53,2.26a2.24,2.24,0,0,1-.64,1.69,2.65,2.65,0,0,1-1.89.6C388.71,290.21,387.87,289.45,387.87,287.92Zm4.83,21.4h-4.64V292.65h4.64Z" transform="translate(-333.88 -285.66)"/><path d="M412.86,309.32h-4.64v-9.61a4.8,4.8,0,0,0-.65-2.76,2.36,2.36,0,0,0-2.08-.92,3.14,3.14,0,0,0-2.82,1.3,8.12,8.12,0,0,0-.86,4.31v7.68h-4.64V292.64h3.54l.63,2.17h.25a4.87,4.87,0,0,1,2.15-1.83,7.23,7.23,0,0,1,3.09-.63,5.93,5.93,0,0,1,4.5,1.6,6.37,6.37,0,0,1,1.53,4.6v10.77Z" transform="translate(-333.88 -285.66)"/><path d="M424.93,309.62a8.78,8.78,0,0,1-6.42-2.26,7.8,7.8,0,0,1-2.31-6.07,9.42,9.42,0,0,1,2.14-6.61,7.62,7.62,0,0,1,5.91-2.33,7.49,7.49,0,0,1,5.61,2,7.8,7.8,0,0,1,2,5.67v2.25h-11a3.74,3.74,0,0,0,1.17,2.74,4.13,4.13,0,0,0,3.07,1.11,13,13,0,0,0,2.91-.32,14,14,0,0,0,2.85-1v3.59a10.83,10.83,0,0,1-2.6.91A16.91,16.91,0,0,1,424.93,309.62Zm-.65-14a3,3,0,0,0-2.32.93,4.37,4.37,0,0,0-.95,2.66h6.5a3.9,3.9,0,0,0-.89-2.66A3.05,3.05,0,0,0,424.28,295.65Z" transform="translate(-333.88 -285.66)"/><path class="cls-1" d="M450.35,293.57a6.23,6.23,0,0,1-2.3,5.19,10.46,10.46,0,0,1-6.59,1.82h-2.62v8.74h-2.59V287.09H442Q450.35,287.09,450.35,293.57Zm-11.51,4.78h2.33a8.65,8.65,0,0,0,5-1.11,4.08,4.08,0,0,0,1.53-3.55,3.85,3.85,0,0,0-1.44-3.29,7.55,7.55,0,0,0-4.5-1.08h-2.89v9Z" transform="translate(-333.88 -285.66)"/><path class="cls-1" d="M456.35,309.32h-2.52V285.66h2.52Z" transform="translate(-333.88 -285.66)"/><path class="cls-1" d="M463.28,292.65v10.81a4.32,4.32,0,0,0,.93,3,3.77,3.77,0,0,0,2.9,1,4.74,4.74,0,0,0,3.82-1.43c.81-1,1.21-2.51,1.21-4.67v-8.76h2.53v16.67h-2.09l-.36-2.24h-.14a5.07,5.07,0,0,1-2.15,1.89,7.31,7.31,0,0,1-3.14.65,6.31,6.31,0,0,1-4.55-1.45q-1.51-1.44-1.52-4.62v-10.9Z" transform="translate(-333.88 -285.66)"/><path class="cls-1" d="M490,304.77a4.16,4.16,0,0,1-1.73,3.59,8.17,8.17,0,0,1-4.86,1.26,10.56,10.56,0,0,1-5.17-1.05v-2.34a13.35,13.35,0,0,0,2.57,1,11,11,0,0,0,2.66.35,6,6,0,0,0,3-.63,2.18,2.18,0,0,0,.22-3.59,13.3,13.3,0,0,0-3.29-1.64,17.09,17.09,0,0,1-3.31-1.51,4.54,4.54,0,0,1-1.46-1.47,3.8,3.8,0,0,1-.48-2,3.72,3.72,0,0,1,1.66-3.21,7.67,7.67,0,0,1,4.54-1.18,13.26,13.26,0,0,1,5.26,1.09l-.89,2.06a12.08,12.08,0,0,0-4.55-1,5.23,5.23,0,0,0-2.7.56,1.76,1.76,0,0,0-.92,1.56,1.9,1.9,0,0,0,.35,1.14,3.24,3.24,0,0,0,1.1.89,22.11,22.11,0,0,0,2.92,1.23,10.88,10.88,0,0,1,4,2.18A3.81,3.81,0,0,1,490,304.77Z" transform="translate(-333.88 -285.66)"/><path class="cls-2" d="M497,292.65h-4.47v-2.53H497v-4.46h2.53v4.46H504v2.53h-4.47v4.45H497Z" transform="translate(-333.88 -285.66)"/></svg>